Coordinates
version=1
nRows=12
nColumns=46
inDegrees=yes

Units are S.I. units (second, meters, Newtons, ...)
Angles are in degrees.

endheader
time	pelvis_tilt	pelvis_list	pelvis_rotation	pelvis_tx	pelvis_ty	pelvis_tz	bb_angle	bb_tx	bb_ty	bb_tz	hip_flexion_r	hip_adduction_r	hip_rotation_r	knee_angle_r	knee_angle_r_beta	ankle_angle_r	subtalar_angle_r	mtp_angle_r	crank_angle_r	hip_flexion_l	hip_adduction_l	hip_rotation_l	knee_angle_l	knee_angle_l_beta	ankle_angle_l	subtalar_angle_l	mtp_angle_l	crank_angle_l	lumbar_extension	lumbar_bending	lumbar_rotation	arm_flex_r	arm_add_r	arm_rot_r	elbow_flex_r	pro_sup_r	wrist_flex_r	wrist_dev_r	arm_flex_l	arm_add_l	arm_rot_l	elbow_flex_l	pro_sup_l	wrist_flex_l	wrist_dev_l
      7.50000000	    -23.22519956	      5.04948193	      4.79153054	      0.15248547	      1.12250104	     -0.23369952	      0.00000000	      0.50000000	      0.00000000	      0.25000000	     43.64426379	    -10.18920837	      1.72893806	     28.41472361	      0.49593048	    -18.74715807	    -10.68449150	      0.00000000	      0.00000000	     94.59812071	      1.47597803	      2.13777992	    102.95388037	      1.79688419	     12.20739997	     -0.32746047	      0.00000000	      0.00000000	    -48.31957649	     -4.19327039	     -8.75660322	     89.60318759	     -3.86518217	     46.12744955	     24.43314720	     26.39998525	      0.00000000	      0.00000000	     89.80268989	     -6.42648247	     41.87556851	     31.71164989	     23.46926864	      0.00000000	      0.00000000
      7.50500000	    -23.48397655	      5.10812488	      4.59648855	      0.15185014	      1.12273679	     -0.23365839	      0.00000000	      0.50000000	      0.00000000	      0.25000000	     44.27723175	    -10.09415822	      2.23188448	     30.11421637	      0.52559223	    -17.68467258	    -10.73384305	      0.00000000	      0.00000000	     94.85697168	      1.45298814	      2.05972310	    101.75590908	      1.77597565	     11.84371410	     -0.92741671	      0.00000000	      0.00000000	    -48.11300804	     -4.38485179	     -8.67054709	     89.60304932	     -3.86834993	     45.94635937	     24.53705214	     26.33413047	      0.00000000	      0.00000000	     89.80195081	     -6.38449485	     41.60554318	     31.83720914	     23.32371282	      0.00000000	      0.00000000
      7.51000000	    -23.49204796	      4.99719369	      4.42409430	      0.15137226	      1.12328551	     -0.23358345	      0.00000000	      0.50000000	      0.00000000	      0.25000000	     44.62651323	     -9.83562395	      2.58770379	     31.81585949	      0.55529150	    -16.69868337	    -11.16965371	      0.00000000	      0.00000000	     94.79557389	      1.44303746	      2.20585128	    100.53948316	      1.75474501	     11.57708675	     -1.29335075	      0.00000000	      0.00000000	    -48.15400155	     -4.35566465	     -8.45951959	     89.60549297	     -3.65659041	     44.75953287	     24.55045850	     26.94383672	      0.00000000	      0.00000000	     89.80290168	     -6.35132472	     40.42952783	     31.91275152	     24.04346486	      0.00000000	      0.00000000
      7.51500000	    -23.46246521	      4.88845812	      4.26241857	      0.15081903	      1.12384080	     -0.23357181	      0.00000000	      0.50000000	      0.00000000	      0.25000000	     45.01277718	     -9.57927032	      2.98609381	     33.62592132	      0.58688304	    -15.67858103	    -11.55657396	      0.00000000	      0.00000000	     94.60943607	      1.48211101	      2.36249377	     99.23216202	      1.73192795	     11.25666744	     -1.73225550	      0.00000000	      0.00000000	    -48.22819397	     -4.28984328	     -8.24442391	     89.61116601	     -3.44813394	     43.82284860	     24.59515214	     27.16348441	      0.00000000	      0.00000000	     89.80339643	     -6.25247465	     39.83119357	     31.93904091	     24.28922846	      0.00000000	      0.00000000
      7.52000000	    -23.36550247	      4.73116144	      4.08371320	      0.15029146	      1.12440177	     -0.23357400	      0.00000000	      0.50000000	      0.00000000	      0.25000000	     45.38068451	     -9.25654687	      3.34601416	     35.51260272	      0.61981184	    -14.73953981	    -12.07546484	      0.00000000	      0.00000000	     94.27708173	      1.50534978	      2.57729592	     97.89001070	      1.70850299	     10.99046721	     -2.10298196	      0.00000000	      0.00000000	    -48.41880247	     -4.23290783	     -8.06283593	     89.61176617	     -3.59475109	     43.37298690	     25.24297474	     27.39503948	      0.00000000	      0.00000000	     89.80236790	     -6.42920654	     39.43402999	     32.42091455	     24.54447724	      0.00000000	      0.00000000
      7.52500000	    -23.36850611	      4.59119346	      3.90823852	      0.14976017	      1.12485621	     -0.23368541	      0.00000000	      0.50000000	      0.00000000	      0.25000000	     45.84472472	     -8.94503481	      3.77622930	     37.32520586	      0.65144774	    -13.71539618	    -12.38853503	      0.00000000	      0.00000000	     93.97320629	      1.51787213	      2.73855053	     96.46080006	      1.68355856	     10.56390572	     -2.61816499	      0.00000000	      0.00000000	    -48.37736678	     -4.16955434	     -7.89690264	     89.62961544	     -3.39392943	     43.45307541	     25.01443698	     27.04304208	      0.00000000	      0.00000000	     89.80619579	     -6.45614117	     39.58790409	     32.23291103	     23.97531888	      0.00000000	      0.00000000
      7.53000000	    -23.30437350	      4.27847403	      3.70282331	      0.14930310	      1.12519974	     -0.23349888	      0.00000000	      0.50000000	      0.00000000	      0.25000000	     46.34438776	     -8.47881852	      3.99788601	     39.32442432	      0.68634068	    -12.75049000	    -12.73742543	      0.00000000	      0.00000000	     93.58037726	      1.39174699	      3.04392421	     95.04533056	      1.65885396	     10.17178578	     -2.91226242	      0.00000000	      0.00000000	    -48.43306249	     -3.99969657	     -7.54801392	     89.63198140	     -3.32516874	     42.91725692	     25.06721396	     27.57672479	      0.00000000	      0.00000000	     89.80579213	     -6.49746649	     39.21807857	     32.17978497	     24.56033786	      0.00000000	      0.00000000
      7.53500000	    -23.10745298	      4.07876461	      3.54871337	      0.14886772	      1.12575547	     -0.23342180	      0.00000000	      0.50000000	      0.00000000	      0.25000000	     46.76230288	     -8.15041693	      4.23619346	     41.40636722	      0.72267744	    -11.77471683	    -12.98025595	      0.00000000	      0.00000000	     92.94871593	      1.36731521	      3.25951975	     93.56823317	      1.63307374	      9.82305683	     -3.30552307	      0.00000000	      0.00000000	    -48.64709193	     -3.83712929	     -7.36410252	     89.64477636	     -3.22701786	     42.82284473	     25.19676664	     28.21044762	      0.00000000	      0.00000000	     89.80862294	     -6.79972739	     39.60319523	     32.31418099	     25.37795387	      0.00000000	      0.00000000
      7.54000000	    -23.03632333	      3.79931419	      3.31714143	      0.14850945	      1.12573807	     -0.23357074	      0.00000000	      0.50000000	      0.00000000	      0.25000000	     47.35981596	     -7.69200434	      4.55725140	     43.54044053	      0.75992404	    -10.83237830	    -13.17367676	      0.00000000	      0.00000000	     92.44024978	      1.25905072	      3.52808841	     92.12983471	      1.60796896	      9.44966661	     -3.68723186	      0.00000000	      0.00000000	    -48.67935393	     -3.69254827	     -7.00862547	     89.65051677	     -3.28089887	     42.82387623	     25.40692753	     28.05388180	      0.00000000	      0.00000000	     89.80783916	     -6.76843079	     39.43333585	     32.38215389	     25.06654591	      0.00000000	      0.00000000
      7.54500000	    -22.77971412	      3.46827643	      3.06595601	      0.14817194	      1.12592220	     -0.23369987	      0.00000000	      0.50000000	      0.00000000	      0.25000000	     47.79114148	     -7.19965847	      4.75974445	     45.67727790	      0.79721889	     -9.96780610	    -13.64928780	      0.00000000	      0.00000000	     91.67702310	      1.21238562	      3.97696366	     90.68067823	      1.58267640	      9.17977473	     -3.94987504	      0.00000000	      0.00000000	    -48.88764690	     -3.46343642	     -6.60172313	     89.66202089	     -3.23026000	     42.81024591	     25.53067593	     28.00554492	      0.00000000	      0.00000000	     89.80874046	     -6.83895222	     39.35123153	     32.39922764	     24.95915757	      0.00000000	      0.00000000
      7.55000000	    -22.65176298	      3.20757553	      2.89692460	      0.14771895	      1.12589623	     -0.23384015	      0.00000000	      0.50000000	      0.00000000	      0.25000000	     48.42820766	     -6.84829969	      4.91905272	     47.88415995	      0.83573625	     -8.90854366	    -13.45759564	      0.00000000	      0.00000000	     91.00162161	      1.12866155	      4.18870334	     89.14444197	      1.55586402	      8.61463028	     -4.51505888	      0.00000000	      0.00000000	    -49.01239082	     -3.27189121	     -6.23836102	     89.65677816	     -3.00498201	     41.28133769	     25.60803628	     28.40434923	      0.00000000	      0.00000000	     89.80779008	     -6.58161816	     38.46315615	     32.16646643	     25.40339886	      0.00000000	      0.00000000
      7.55500000	    -22.39059731	      2.78494951	      2.63834712	      0.14742094	      1.12592605	     -0.23376816	      0.00000000	      0.50000000	      0.00000000	      0.25000000	     48.88952845	     -6.25793704	      5.02099046	     49.98757289	      0.87244773	     -8.19345596	    -13.85429216	      0.00000000	      0.00000000	     90.13966914	      0.93872785	      4.61418388	     87.62521306	      1.52934848	      8.37190720	     -4.76539739	      0.00000000	      0.00000000	    -49.20210464	     -3.01653398	     -5.80589652	     89.66710452	     -2.94920590	     41.37414843	     25.78231905	     28.37617091	      0.00000000	      0.00000000	     89.80798595	     -6.69681090	     38.48307387	     32.26601931	     25.32098681	      0.00000000	      0.00000000
